# xmcd
#
# Track frame offsets:
#	150
#	15619
#	33037
#	49856
#	64997
#	80984
#	95921
#	110078
#	127047
#	144340
#	158412
#
# Disc length: 2394 seconds
#
# Revision: 1
# Processed by: cddbd v1.5.2PL0 Copyright (c) Steve Scherf et al.
# Submitted via: EasyCDDAExtractor 15.3.0.1
#
DISCID=9609580b
DTITLE=Yuri - Mi Tributo Al Festival Dos - Zona Preferente
DYEAR=2013
DGENRE=Latin
TTITLE0=Tiempos Mejores
TTITLE1=La Felicidad (A Dueto Con Gualberto Castro)
TTITLE2=Cuando Pienso En Ti (A Dueto Con Lila Deneken)
TTITLE3=Lo Que Paso, Paso (A Dueto Con Yoshio)
TTITLE4=En Mi Soledad (A Dueto Con Arianna)
TTITLE5=Mi Exito (A Dueto Con Mario Pintor)
TTITLE6=Compas De Espera (A Dueto Con Maria Medina)
TTITLE7=Hombre (A Dueto Con Jose Maria Napoleon)
TTITLE8=En Las Buenas Y En Las Malas (A Dueto Con Sonia Rivas)
TTITLE9=El Fandango Aqui (A Dueto Con Eugenia Leon)
TTITLE10=El Triste
EXTD=
EXTT0=
EXTT1=
EXTT2=
EXTT3=
EXTT4=
EXTT5=
EXTT6=
EXTT7=
EXTT8=
EXTT9=
EXTT10=
PLAYORDER=
